<svg width="801" height="199" viewBox="0 0 801 199" fill="none" xmlns="http://www.w3.org/2000/svg">
<g clip-path="url(#clip0_1_43)">
<path d="M103 29H243V99.4099C243 117.46 233.371 134.139 217.74 143.165L173 169L128.26 143.165C112.629 134.139 103 117.46 103 99.4099V29Z" fill="#FFDD2D"/>
<path fill-rule="evenodd" clip-rule="evenodd" d="M141.422 66.0585V87.9574C144.417 84.5758 149.862 82.2872 156.087 82.2872H162.852V107.744C162.852 114.517 161.012 120.445 158.281 123.706H187.708C184.984 120.442 183.148 114.522 183.148 107.757V82.2872H189.913C196.139 82.2872 201.583 84.5758 204.578 87.9574V66.0585H141.422Z" fill="#333333"/>
<path d="M274.647 123.661V65.9292H333.286V79.1248H292.132V87.3736H312.502C326.935 87.3736 337.655 90.6731 337.655 105.516C337.655 120.361 326.935 123.661 312.502 123.661H274.647ZM292.132 100.569V110.465H312.585C318.523 110.465 319.924 109.31 319.924 105.516C319.924 101.724 318.523 100.569 312.585 100.569H292.132Z" fill="white"/>
<path d="M363.135 65.9292V99.4142H363.959L394.227 65.9292H409.235V123.661H391.751V90.2589H390.927L360.659 123.661H345.65V65.9292H363.135Z" fill="white"/>
<path d="M448.9 125.311C429.929 125.311 415.993 119.455 415.993 107.166H434.55C434.55 111.043 440.405 112.115 448.981 112.115C459.125 112.115 464.238 111.209 464.238 106.508C464.238 102.631 460.529 101.393 451.457 101.393H436.199V88.1973H451.457C459.703 88.1973 463.414 86.7961 463.414 83.2505C463.414 78.9616 459.951 77.4751 449.724 77.4751C437.766 77.4751 435.29 78.6302 434.796 83.1676H416.488C416.488 71.785 427.787 64.2795 449.724 64.2795C468.032 64.2795 480.733 70.9614 480.733 82.4244C480.733 89.7642 476.032 92.4862 470.094 93.8874V94.8792C476.776 96.1147 481.971 99.4142 481.971 107.166C481.971 119.621 470.342 125.311 448.9 125.311Z" fill="white"/>
<path d="M506.459 102.219V123.661H488.974V65.9292H506.459V86.9618H535.077V65.9292H552.56V123.661H535.077V102.219H506.459Z" fill="white"/>
<path d="M580.596 101.393V109.642H621.749V123.661H563.111V65.9292H621.749V79.9509H580.596V88.1973H618.45V101.393H580.596Z" fill="white"/>
<path d="M663.227 79.1249C651.599 79.1249 644.919 85.312 644.919 94.7963C644.919 104.281 651.599 110.465 663.227 110.465C672.546 110.465 678.733 106.837 680.383 100.815H698.937C696.629 115.083 684.669 125.311 663.227 125.311C639.309 125.311 626.774 112.115 626.774 94.7963C626.774 77.4751 639.309 64.2795 663.227 64.2795C684.752 64.2795 696.218 74.5898 698.525 88.8577H680.383C678.733 82.8362 672.629 79.1249 663.227 79.1249Z" fill="white"/>
</g>
<defs>
<clipPath id="clip0_1_43">
<rect width="595.937" height="140" fill="white" transform="translate(103 29)"/>
</clipPath>
</defs>
</svg>
